<svg width="800" height="600" viewBox="0 0 800 600" fill="none" xmlns="http://www.w3.org/2000/svg">
<g clip-path="url(#clip0_74_18)">
<path d="M416.686 346.518H429.069L434.022 347.132L434.641 349.586L430.926 356.948L427.831 367.99L425.354 380.873V393.143L429.069 394.37H436.499L440.214 391.916L443.928 385.781L448.882 375.965L453.216 369.831L458.169 366.15L462.503 364.309L466.218 363.696H486.649L487.268 366.763L485.411 377.806L484.173 384.554V387.621L486.649 388.235L487.888 376.579V361.242L486.649 355.721L484.792 352.653L486.03 350.199L494.079 347.132L496.556 346.518H501.509L502.128 349.586L500.89 363.696L500.271 367.377L507.7 364.309L511.415 363.696H516.987L520.083 364.923L523.179 368.604L525.036 373.511L527.513 372.898L532.466 368.604L538.657 364.923L542.372 363.696H553.517L559.089 366.15H562.804L568.995 363.696L572.71 364.309L576.425 366.763L579.521 366.15L583.855 364.309H589.427L592.523 366.15L594.999 371.671L599.333 367.99L604.906 364.309L607.382 363.696L630.91 363.082L634.006 361.242L637.72 355.721L639.578 354.494H646.388L647.627 355.721L648.246 362.469L655.056 364.309L657.533 366.15V367.377L665.582 364.309L668.678 363.696H681.06L687.871 366.763L690.967 366.15L695.92 363.696L699.635 364.309L702.73 367.377V368.604L705.826 367.99L711.398 364.309L730.592 363.696L732.449 366.763L741.117 392.529L742.975 391.916L744.832 387.621L745.451 384.554L744.832 375.965L742.975 368.604V365.536L744.213 364.309L749.785 363.696L752.881 364.923L754.119 366.763V379.646L751.643 388.848L746.69 399.891L742.356 406.639L738.022 411.547L732.449 415.228L727.496 417.068L717.59 417.682L712.018 416.455L710.16 414.001V407.253L712.018 403.572L712.637 402.958H716.352L718.828 405.412L721.924 410.934H726.258L729.354 408.48L729.973 404.799L729.354 396.824L726.258 387.008L722.543 380.873L719.447 378.419L712.637 376.579L708.922 375.352L705.826 375.965L703.35 385.168L702.111 396.824L698.396 402.345L692.824 402.958L688.49 402.345L687.871 399.891L689.109 393.756L681.68 398.051L676.726 401.118L671.773 402.345H637.101L628.433 399.891L625.957 402.345L620.384 402.958L616.05 401.731L614.812 399.278L608.621 401.118L605.525 402.345H595.619L591.904 399.891L588.808 394.983V380.26L585.712 377.192L582.617 375.352H579.521L577.044 382.1L575.806 393.143L572.71 402.345L567.138 402.958L562.185 402.345L561.566 401.731V397.437L562.185 391.916L555.374 397.437L552.279 399.891L546.706 402.345L538.657 402.958L530.609 401.731L525.655 397.437L523.179 393.143H521.321L518.226 396.21L511.415 401.118L508.319 402.345L503.366 402.958H495.317L490.364 401.118L487.888 399.278L484.173 400.504L481.696 402.345H472.409L471.171 399.278L460.645 401.731L454.454 402.345L436.499 402.958H419.163L404.922 402.345L403.684 401.731L404.303 397.437L407.399 392.529L409.876 385.781L412.352 374.125L412.971 367.377V357.561L410.495 352.653L411.114 348.972L412.971 347.132L416.686 346.518ZM649.484 369.217L646.388 371.058L644.531 376.579L643.912 380.873V391.916L645.769 394.983L648.246 394.37L650.722 388.235L652.58 377.192L654.437 369.831L653.818 369.217H649.484ZM669.916 369.217L666.82 371.671L664.344 377.806L663.105 385.781L664.344 393.756L666.82 397.437L671.154 396.824L674.869 391.916L676.726 384.554L677.346 377.806L675.488 371.058L673.012 369.217H669.916ZM544.23 369.217L541.134 371.058L538.657 375.965L536.8 385.781V391.302L538.657 395.597L539.896 396.824H542.991L546.706 393.756L549.183 388.235L549.802 384.554V377.806L547.325 371.671L544.23 369.217ZM469.932 369.831L466.218 371.671L461.264 377.192L458.169 383.941L457.55 388.235L459.407 393.756L460.026 394.37L464.36 393.756L468.694 390.075L472.409 382.714L473.647 375.965L473.028 371.058L469.932 369.831ZM613.574 369.831L609.859 371.671L604.906 377.192L601.81 383.941L601.191 388.235L603.048 393.756L603.667 394.37L608.001 393.756L612.335 390.075L616.05 383.327L617.289 372.898L616.05 370.444L613.574 369.831ZM630.91 370.444L628.433 376.579L627.195 383.327L626.576 391.302H629.052L630.91 387.621L632.767 375.965V370.444H630.91ZM506.462 371.671L501.509 377.192L498.413 385.168L497.794 388.848V393.756L499.651 396.824L503.985 396.21L508.319 392.529L510.796 386.394L512.034 381.487L511.415 375.352L509.558 371.671H506.462Z" fill="#49607B"/>
<path d="M276.76 258.178H289.143L294.715 259.405L298.43 261.859L300.287 264.313L299.049 267.38L294.715 271.061L291.619 276.582L290.381 285.784L291 291.306L292.857 292.532L297.191 293.146H304.002L310.813 291.919L314.527 289.465L316.385 284.557V274.742L313.908 269.834L311.432 266.766V263.699L314.527 261.245L320.719 259.405L325.053 258.791H368.393L376.442 261.245L377.68 261.859V264.926L372.727 271.674L369.631 279.649L365.916 295.6L363.44 311.55V328.114L365.297 331.182L370.25 333.635L375.823 333.022L384.491 328.728L392.54 321.366L397.493 317.072L399.969 316.458L400.588 317.072V325.047L398.731 334.862L396.254 342.224L394.397 344.065H327.529L307.098 343.451L304.002 342.224L301.525 339.77L302.145 337.316L302.764 336.089H304.002L305.24 333.635L308.336 328.728L310.813 321.979L312.051 314.618V308.483L310.193 306.642L300.906 305.416H294.096L287.904 307.256L286.666 309.096L285.428 317.072V329.955L286.666 333.022L289.143 336.089L288.523 340.384L285.428 343.451L274.283 344.065H258.185L255.09 342.838L254.471 342.224V337.316L260.662 328.114L263.758 319.525L266.234 307.256L267.473 291.306V277.809L266.234 269.834L264.377 265.539V261.859L266.853 260.018L271.187 258.791L276.76 258.178ZM341.77 270.447L339.912 273.515L338.055 279.649L335.578 293.759L333.102 313.391L332.483 322.593V331.795L333.102 332.409H336.197L338.674 328.728L341.77 318.299L343.627 310.323L346.104 287.625L345.485 279.649L343.627 271.674L343.008 270.447H341.77Z" fill="#475E7A"/>
<path d="M94.7315 128.734L100.923 131.188L112.068 137.323L118.878 142.23L127.546 149.592L132.499 155.727L135.595 160.635V161.862L131.88 161.248L124.45 159.408L113.306 158.181H102.161L92.8741 160.021L89.1592 162.475L86.6826 164.929H85.4444L84.2061 167.383L78.6338 172.904L74.2998 179.039L69.3466 188.241L66.2509 199.284L63.7743 218.302V279.036L65.6318 298.667L68.1083 314.618L72.4423 334.249L79.2529 358.788L87.9209 386.395L96.5889 410.32L103.4 426.884L111.448 445.288L121.974 466.76L131.88 485.778L139.929 499.888L147.978 514.611L151.693 520.746V523.2L148.597 521.973L139.31 509.703L131.261 498.661L126.927 491.913L119.497 479.643L103.4 452.65L92.8741 433.019L84.2061 415.228L74.9189 393.756L68.1083 375.965L60.6786 354.494L54.4872 331.795L50.7723 315.231L47.0574 294.373L45.8192 281.49L44.5809 272.288L43.9617 257.564V240.387L44.5809 225.05L46.4383 210.94L47.6766 201.124L50.7723 187.014L55.1063 174.131L60.0595 163.089L65.0126 154.5L71.204 146.525L79.8721 137.936L89.1592 131.801L94.7315 128.734Z" fill="#485F7B"/>
<path d="M191.937 162.475H219.798L231.562 163.702L244.564 167.383L255.709 172.291L265.615 178.426L273.664 185.787L278.617 190.695L284.189 199.284L287.904 206.646L291 215.848L292.857 222.596L294.096 236.092V256.337H292.857L289.143 246.522L283.57 229.958L278.617 220.142L273.664 211.553L267.473 203.578L261.9 197.443L257.566 192.536L252.613 188.241L247.041 183.333L238.992 178.426L234.658 177.199L227.847 176.585L206.796 175.972L186.365 177.199L172.744 180.266L164.695 183.333L155.408 188.241L149.216 193.149L144.263 197.443L138.072 205.419L130.642 219.529L127.546 228.731L125.07 239.16L123.212 248.362L121.355 269.22L120.736 279.649V292.532L120.116 295.6L118.878 294.373L116.402 285.171L113.925 266.766V241.614L116.402 223.209L120.116 209.713L122.593 204.192L126.308 196.83L131.88 189.468L138.691 182.106L144.882 176.585L154.169 171.064L160.98 167.996L169.029 165.543L182.65 163.089L191.937 162.475Z" fill="#475E7B"/>
<path d="M341.151 125.667H362.202L370.87 127.507L380.776 132.415L386.967 137.323L393.159 143.457L398.731 151.433L406.161 165.543L413.59 184.56L416.686 194.989L418.544 204.805L419.163 210.326L419.782 227.504V253.883L419.163 278.422L416.686 304.188L409.256 339.157L407.399 345.291L405.542 345.905L406.161 338.543L407.399 329.341L409.876 301.735L411.114 265.539V249.589L410.495 229.344L409.256 216.461L407.399 202.965L403.684 187.628L398.112 171.677L390.682 156.34L384.491 146.525L378.918 140.39L374.584 136.709L368.393 133.642L362.821 132.415L351.676 131.801L335.578 133.028L325.672 136.096L316.385 141.003L307.098 147.752L300.906 153.273L297.811 155.727L294.096 161.248L305.859 160.021L318.861 155.727L336.197 148.365L338.674 148.979L335.578 152.046L328.768 156.34L314.527 163.089L299.668 167.996L284.809 171.677H279.855L279.236 171.064V165.543L282.332 159.408L289.143 150.819L297.191 142.844L305.859 136.709L315.766 131.801L324.434 128.734L335.578 126.28L341.151 125.667Z" fill="#49607B"/>
<path d="M281.094 368.604H317.004L325.672 377.806L331.244 383.941L337.436 390.689L343.008 397.437L345.485 401.118V402.958L342.389 402.345L328.149 394.37L318.242 389.462L307.717 385.781L302.764 385.168H286.047L279.236 386.394L269.33 390.075L261.281 394.983L255.09 399.891L248.279 406.639L242.088 415.228L235.896 425.657L228.467 440.994L222.894 456.331L219.179 468.6H217.322L216.703 465.533L217.941 456.331L222.275 439.154L229.086 418.909L235.896 404.799L242.088 395.597L247.041 389.462L252.613 383.327L259.424 377.192L266.234 372.898L273.664 369.831L281.094 368.604Z" fill="#485F7B"/>
<path d="M211.75 79.0423H229.705L239.611 80.8827L249.517 83.9501L264.996 90.0849L280.475 98.0601L292.857 105.422L295.953 107.876L296.572 110.33L292.857 109.716L279.855 102.968L266.853 97.4466L254.471 93.7658L242.088 91.3118L225.371 90.0849H214.226L198.128 91.9253L183.888 96.2197L172.744 101.127L162.218 106.649L154.788 111.557L146.74 117.691L137.452 125.667L130.023 131.188L128.784 130.574L137.452 121.372L149.835 109.103L158.503 102.354L167.171 96.2197L177.697 90.0849L188.222 85.1771L201.224 80.8827L211.75 79.0423Z" fill="#475F7B"/>
<path d="M341.151 125.667H362.202L370.87 127.507L373.965 128.734L373.346 130.574L372.108 131.801H368.393L364.059 130.574H339.912L330.625 132.415L329.387 133.642L324.434 134.255V135.482L319.481 136.709V137.936L315.766 139.163L308.955 144.071L301.525 148.979L297.191 153.886L293.477 160.021L292.238 163.089L297.811 164.929V166.77L296.572 167.996L292.238 169.223L284.809 171.677H279.855L279.236 171.064V165.543L282.332 159.408L289.143 150.819L297.191 142.844L305.859 136.709L315.766 131.801L324.434 128.734L335.578 126.28L341.151 125.667Z" fill="#485F7B"/>
<path d="M206.796 88.8579H247.041L256.328 90.6983H262.519L263.758 89.4714L276.141 95.6062L292.857 105.422L295.953 107.876L296.572 110.33L292.857 109.716L279.855 102.968L266.853 97.4466L254.471 93.7657L242.088 91.3118L225.371 90.0849H214.226L198.128 91.9253L183.888 96.2196L172.744 101.127L162.218 106.649L154.788 111.557L146.74 117.691L137.452 125.667L130.023 131.188L128.784 130.574L137.452 121.372L149.835 109.103L155.408 104.808L158.503 104.195L160.98 103.581V102.354L164.076 101.127H165.933L166.552 99.9005H168.41L173.363 98.0601L175.22 96.8331L180.792 94.9927L182.031 94.3792H185.746V93.1523L197.509 89.4714L206.796 88.8579Z" fill="#93989B"/>
<path d="M373.965 129.347L376.442 129.961L377.061 132.415L380.157 134.869L380.776 137.323H379.538L380.157 140.39L382.633 141.617L385.11 144.684L384.491 146.525L378.918 140.39L374.584 136.709L368.393 133.642L362.821 132.415L351.676 131.801L335.578 133.028L325.672 136.096L316.385 141.003L307.098 147.752L300.906 153.273L297.811 155.727L294.096 161.248L305.859 160.021L318.861 155.727L336.197 148.365L338.674 148.979L335.578 152.046L328.768 156.34L314.527 163.089L299.668 167.996L294.715 169.223L292.238 168.61L297.191 166.77V164.929L292.238 163.089L292.857 160.021L296.572 153.887L302.145 147.752L308.955 143.457L315.766 138.55H317.623L318.242 137.323L319.481 137.936V136.709L321.957 135.482H324.434V134.255L335.578 130.574L339.912 129.961H364.059L372.108 131.801L372.727 129.961L373.965 129.347Z" fill="#94999C"/>
<path d="M405.542 198.057L406.78 199.897L409.256 212.78L411.114 229.344L411.733 241.614L412.352 279.036L412.971 280.263L413.59 294.373L415.448 293.759L416.067 294.373L415.448 304.188L408.018 339.157L406.161 345.291L404.303 345.905L404.922 338.543L406.161 329.341L408.637 301.735L409.876 265.539V249.589L409.256 229.344L408.018 216.461L406.161 202.965L405.542 198.057Z" fill="#93989B"/>
<path d="M127.546 224.437L128.165 226.89L125.689 235.479L123.212 248.362L121.355 269.22L120.736 279.65V292.533L120.116 295.6L118.878 294.373L116.402 285.171L113.925 266.766V241.614H114.544L115.163 246.522L115.782 257.564L117.64 258.791L118.259 256.337L118.878 253.27L120.736 247.749L121.974 237.933L123.831 231.798L127.546 224.437Z" fill="#93989B"/>
<path d="M225.371 88.8579H247.041L256.328 90.6983H262.519L263.758 89.4714L276.141 95.6062L292.857 105.422L295.953 107.876L296.572 110.33L292.857 109.716L279.855 102.968L266.853 97.4466L254.471 93.7657L242.088 91.3118L225.371 90.0849V88.8579Z" fill="#92979B"/>
<path d="M251.994 401.118L253.232 401.731L248.279 406.639L242.088 415.228L235.896 425.657L228.467 440.994L222.894 456.331L219.179 468.601H217.322L216.703 465.533L217.941 456.331L222.275 439.154L223.513 437.313L224.752 439.154L225.371 437.313L227.228 436.7V433.632L229.705 432.405L229.086 430.565L231.562 428.724L233.42 425.657H234.658L235.277 423.203L238.992 415.841L240.849 412.774H242.088L243.326 410.32L248.898 403.572H250.137V402.345L251.994 401.118Z" fill="#91969A"/>
<path d="M205.558 172.904H218.56L231.562 174.131L233.42 175.358L238.992 176.585L244.564 179.653L245.183 181.493L242.088 180.266L237.135 177.812L227.847 176.585L206.796 175.972L186.365 177.199L172.744 180.266L164.695 183.333L160.98 185.174H159.742V183.947L165.933 180.88L170.886 179.039L182.031 175.358L188.841 173.518L205.558 172.904Z" fill="#9BA0A3"/>
<path d="M65.0126 200.511H65.6317L65.0126 208.486L63.7743 218.302L63.1552 273.515H62.536L60.6786 263.086V221.983L61.9169 217.688L63.1552 206.032L65.0126 200.511Z" fill="#A5A9AB"/>
<path d="M373.965 129.347L376.442 129.961L377.061 132.415L380.157 134.869L380.776 137.323H379.538L380.157 140.39L382.633 141.617L385.11 144.684L384.491 146.525L378.918 140.39L374.584 136.709L368.393 133.642L362.821 132.415L351.676 131.801L335.578 133.028L329.387 134.255L331.244 131.801L339.912 129.961H364.059L372.108 131.801L372.727 129.961L373.965 129.347Z" fill="#999EA1"/>
<path d="M258.185 192.536L261.281 193.763L264.377 196.83V198.057L266.853 199.284L269.949 202.965V204.192L272.426 205.419L276.76 211.553L282.951 221.369L284.189 225.05L285.428 227.504L286.666 233.025L287.904 236.706V240.387L286.666 238.546L282.951 228.731L277.998 218.915L272.426 209.713L264.377 199.897L258.185 193.763V192.536Z" fill="#93989B"/>
<path d="M325.672 133.642H329.387V134.869L321.957 137.936L314.527 142.23L307.098 147.752L300.906 153.273L297.811 155.727L294.715 160.021H293.477L294.715 156.34L300.287 149.592L305.24 145.911L311.432 141.617L315.766 138.55H317.623L318.242 137.323L319.481 137.936V136.709L321.957 135.482H324.434V134.255L325.672 133.642Z" fill="#93989B"/>
<path d="M136.833 504.182L139.31 504.796L141.167 506.636V508.476L144.263 507.863L151.693 520.746V523.2L148.597 521.973L139.31 509.703L136.214 504.796L136.833 504.182Z" fill="#8D9399"/>
<path d="M409.876 325.047L411.114 325.66V330.568L408.637 341.611L406.78 345.905H405.542L406.161 338.543L408.018 326.274L409.876 325.047Z" fill="#4D637D"/>
<path d="M322.576 390.689L328.149 391.302L334.34 394.983L335.578 396.824L338.674 398.051L342.389 396.824L344.865 399.891L345.485 402.958L342.389 402.345L328.149 394.37L322.576 391.302V390.689Z" fill="#93989B"/>
<path d="M690.348 372.898L692.205 373.511V382.1L689.728 395.597L689.109 393.756L685.394 394.983L686.633 391.916L689.109 387.008L689.728 383.941L690.348 372.898Z" fill="#93989B"/>
<path d="M266.853 269.834L268.711 270.447L269.949 272.288V282.717L268.711 294.986L268.092 298.054H267.473V277.809L266.853 269.834Z" fill="#9CA0A3"/>
<path d="M251.994 401.118L253.232 401.731L248.279 406.639L242.088 415.228L237.135 423.203L235.896 422.59L238.373 417.068L240.849 412.774H242.088L243.326 410.32L248.898 403.572H250.137V402.345L251.994 401.118Z" fill="#93989B"/>
<path d="M562.804 372.284L564.661 372.898L565.281 374.125V382.714L563.423 393.143L562.185 391.916L560.327 392.529L562.185 386.394L562.804 385.168V372.284Z" fill="#93989B"/>
<path d="M288.523 103.581L291.619 104.808L295.953 107.876L296.572 110.33L292.857 109.716L284.809 105.422L285.428 104.195L288.523 104.808V103.581Z" fill="#FEFEFE"/>
<path d="M385.729 147.138L388.825 150.206L394.397 160.021L399.35 169.837L398.731 171.677L397.493 170.45L390.682 156.34L385.729 148.365V147.138Z" fill="#93989B"/>
<path d="M343.008 270.447L346.104 271.674L347.342 274.128V279.649L346.723 285.171L345.485 284.557L343.627 272.901L343.008 270.447Z" fill="#ABAFB1"/>
<path d="M466.218 363.696H486.649L487.268 366.763L486.03 374.738H485.411V364.309L478.6 364.923L476.124 365.536L474.886 364.923L466.218 364.309V363.696Z" fill="#93989B"/>
<path d="M405.542 329.341H406.161L407.399 339.157L405.542 345.292L403.684 345.905L404.303 338.543L405.542 329.341Z" fill="#8B9297"/>
<path d="M88.5401 390.075L89.7783 391.916L95.9698 408.48L95.3506 409.707L93.4932 407.253L89.7783 396.824L87.9209 391.302L88.5401 390.075Z" fill="#93989B"/>
<path d="M372.108 270.447L372.727 271.674L369.631 279.649L367.774 287.011H367.155V282.103L368.393 274.742L370.25 271.674L372.108 270.447Z" fill="#A0A4A7"/>
<path d="M399.35 173.518L401.208 175.358L403.065 179.039L403.684 182.72L404.922 185.787L406.78 193.763V197.443L405.542 194.99L401.827 182.107L399.35 174.745V173.518Z" fill="#93989B"/>
<path d="M487.268 355.721L489.745 356.948V368.604L489.126 374.125H488.507L487.888 361.242L487.268 355.721Z" fill="#9DA2A5"/>
<path d="M139.929 118.918L141.167 120.759L138.072 122.599L136.214 125.053L134.976 127.507L130.023 131.188L128.784 130.574L137.452 121.372L139.929 118.918Z" fill="#E7E8E9"/>
<path d="M539.896 372.284V374.125L538.038 382.1L536.8 390.075H536.181V380.26L538.657 373.511L539.896 372.284Z" fill="#A6AAAD"/>
<path d="M410.495 382.714H411.114L410.495 391.302L408.637 394.983L405.542 396.21L409.256 387.621L410.495 382.714Z" fill="#999EA0"/>
<path d="M215.464 475.962H217.322V481.483L216.084 485.164L214.845 484.551V477.189L215.464 475.962Z" fill="#93989B"/>
<path d="M651.961 399.278L656.295 399.891L657.533 402.345H648.246L650.722 400.504H651.961V399.278Z" fill="#AEB2B4"/>
<path d="M656.295 366.15H657.533V367.377L659.39 367.99L654.437 372.898L653.818 371.058V369.831L650.722 369.217V368.604L655.056 367.377L656.295 366.15Z" fill="#959A9C"/>
<path d="M310.193 323.82H310.813V328.728L308.336 333.635L305.24 334.249L309.574 325.66L310.193 323.82Z" fill="#959A9D"/>
<path d="M172.124 178.426H174.601V179.653L164.695 183.333L160.98 185.174H159.742V183.947L165.933 180.88L170.886 179.039L172.124 178.426Z" fill="#93989B"/>
<path d="M483.554 387.621L486.649 388.235V393.143L484.792 393.756L482.935 391.916L483.554 387.621Z" fill="#979C9F"/>
<path d="M387.586 326.274L388.206 327.501L385.11 331.182L381.395 333.022L378.918 332.408L381.395 330.568L387.586 326.274Z" fill="#9CA0A3"/>
<path d="M340.531 321.366H341.151L340.531 327.501L338.674 332.408L337.436 333.022H333.102V332.408L336.197 331.795L338.674 326.887L340.531 321.366Z" fill="#999EA1"/>
<path d="M136.833 504.182L139.31 504.796L141.167 506.636V508.476L142.406 509.09L139.929 510.317L136.214 504.796L136.833 504.182Z" fill="#93989B"/>
<path d="M94.7315 128.734L99.6846 130.574V131.188L91.0166 132.415L89.1592 131.801L94.7315 128.734Z" fill="#93989B"/>
<path d="M262.519 323.206H263.139L262.519 328.728L261.281 331.795L259.424 333.635L257.566 333.022L261.281 326.887L262.519 323.206Z" fill="#989D9F"/>
<path d="M340.531 258.791H350.438L347.961 260.632H343.008L340.531 259.405V258.791Z" fill="#93989B"/>
<path d="M508.939 390.075L509.558 391.916L505.843 396.824L502.128 398.051L500.89 396.824L505.843 394.37L508.319 391.302L508.939 390.075Z" fill="#969B9D"/>
<path d="M313.289 268.607L315.766 269.834L317.623 272.901V282.717H317.004L316.385 274.742L313.908 269.834L313.289 268.607Z" fill="#93989B"/>
<path d="M234.658 175.972L238.992 176.585L244.564 179.653L245.183 181.493L242.088 180.266L237.135 177.812L234.658 177.199V175.972Z" fill="#93989B"/>
<path d="M139.31 120.759H142.406L137.452 125.667L135.595 125.053L139.31 120.759Z" fill="#A9ADB0"/>
<path d="M84.8252 164.929V166.77L78.6338 172.904V171.064L82.9678 166.156L84.8252 164.929Z" fill="#93989B"/>
<path d="M719.447 375.965L721.924 377.192L723.781 380.26L723.162 381.487L719.447 378.419L716.352 377.806L718.828 376.579L719.447 375.965Z" fill="#AEB2B4"/>
<path d="M289.762 280.876H290.381V288.852L291.619 291.919L292.857 293.146L289.762 292.532L289.143 291.919V285.171L289.762 280.876Z" fill="#969B9E"/>
<path d="M161.599 99.9005L162.837 100.514L160.98 103.581L157.884 105.422H156.027L156.646 103.581L161.599 99.9005Z" fill="#546880"/>
<path d="M315.766 287.011L316.385 289.465L315.147 291.919L312.051 293.146H308.955L314.527 289.465L315.766 287.011Z" fill="#9A9EA1"/>
<path d="M649.484 390.075L650.722 391.302V394.983L649.484 395.597H645.769L648.246 393.143L649.484 390.075Z" fill="#B0B4B6"/>
<path d="M306.479 305.415H311.432L313.289 306.642V313.391H312.67L311.432 307.256L306.479 306.029V305.415Z" fill="#93989B"/>
<path d="M539.896 372.284V374.125L538.038 380.26H536.8L537.419 375.965L539.896 372.284Z" fill="#979B9E"/>
<path d="M545.468 369.831L547.945 370.444L549.802 374.125V377.806L548.564 375.352L545.468 369.831Z" fill="#A3A7AA"/>
</g>
<defs>
<clipPath id="clip0_74_18">
<rect width="800" height="600" fill="white"/>
</clipPath>
</defs>
</svg>
